<svg xmlns="http://www.w3.org/2000/svg" width="1800" height="1200" viewBox="0 0 1800 1200" role="img" aria-labelledby="title desc"><title id="title">Jing-Zhang Flow Commons | Enterprise–Resident Reciprocity Gate</title><desc id="desc">An enterprise saving does not automatically become a resident benefit; both sides pass through one evidence chain.</desc>
    <defs><linearGradient id="bg" x1="0" y1="0" x2="1" y2="1"><stop offset="0" stop-color="#071A2C"/><stop offset="1" stop-color="#123E4B"/></linearGradient><filter id="shadow"><feDropShadow dx="0" dy="8" stdDeviation="12" flood-color="#00111F" flood-opacity=".22"/></filter><style>
      .sans{font-family:"PingFang SC","Noto Sans CJK SC","Helvetica Neue",Arial,sans-serif}.title{font:900 43px "PingFang SC","Noto Sans CJK SC","Helvetica Neue",Arial,sans-serif}.sub{font:600 19px "PingFang SC","Noto Sans CJK SC","Helvetica Neue",Arial,sans-serif}.eyebrow{font:900 17px Arial,sans-serif;letter-spacing:3px}.caseId{font:900 16px Arial,sans-serif}.caseTitle{font:900 22px "PingFang SC","Noto Sans CJK SC",Arial,sans-serif}.label{font:900 14px "PingFang SC","Noto Sans CJK SC",Arial,sans-serif}.body{font:650 15px "PingFang SC","Noto Sans CJK SC",Arial,sans-serif}.status{font:900 16px Arial,sans-serif}.siteNo{font:900 18px Arial,sans-serif}.siteTitle{font:900 23px "PingFang SC","Noto Sans CJK SC",Arial,sans-serif}.siteBody{font:650 16px "PingFang SC","Noto Sans CJK SC",Arial,sans-serif}.small{font:650 14px "PingFang SC","Noto Sans CJK SC",Arial,sans-serif}.metric{font:900 29px Arial,sans-serif}.metricLabel{font:800 14px "PingFang SC","Noto Sans CJK SC",Arial,sans-serif}</style></defs>
    <rect width="1800" height="1200" fill="url(#bg)"/><circle cx="1700" cy="70" r="300" fill="#2AA593" opacity=".12"/><text x="70" y="55" class="eyebrow" fill="#71E1C2">FLOW COMMONS / RECIPROCITY REVIEW / v2.1</text><text x="70" y="105" class="title" fill="#F4FBFD">Jing-Zhang Flow Commons</text><text x="70" y="150" class="title" fill="#F4FBFD">Enterprise–Resident Reciprocity Gate</text><text x="70" y="190" class="sub" fill="#ACCAD2">An enterprise saving does not automatically become a resident benefit; both sides pass through one evidence chain.</text>
    <rect x="70" y="215" width="500" height="765" rx="30" fill="#0C293A" stroke="#28576A" filter="url(#shadow)"/><text x="110" y="270" class="eyebrow" fill="#71E1C2">THREE INTERFACES / ONE TWO-WAY CONTRACT</text><path d="M180 350 L180 810" stroke="#5D7F8D" stroke-width="9" stroke-linecap="round"/><path d="M180 350 C390 340 390 535 180 592 C390 605 390 780 180 810" fill="none" stroke="#71E1C2" stroke-width="3" stroke-dasharray="10 10" opacity=".7"/><circle cx="180" cy="408" r="33" fill="#EF7254"/><text x="180" y="416" text-anchor="middle" class="siteNo" fill="#fff">01</text><text x="240" y="403" class="siteTitle" fill="#F1F8FA">Zhongzhiyuan</text><text x="240" y="438" class="siteBody" fill="#9FC0CA">arrivals / shuttle / loading</text><circle cx="180" cy="592" r="33" fill="#27A694"/><text x="180" y="600" text-anchor="middle" class="siteNo" fill="#fff">02</text><text x="240" y="587" class="siteTitle" fill="#F1F8FA">AI Origin Community</text><text x="240" y="622" class="siteBody" fill="#9FC0CA">school / care / health / return</text><circle cx="180" cy="776" r="33" fill="#7180F6"/><text x="180" y="784" text-anchor="middle" class="siteNo" fill="#fff">03</text><text x="240" y="771" class="siteTitle" fill="#F1F8FA">Dazhongsi</text><text x="240" y="806" class="siteBody" fill="#9FC0CA">rail transfer / curb / visitors</text>
    <rect x="105" y="855" width="430" height="84" rx="18" fill="#153B4B"/><text x="125" y="887" class="small" fill="#9FC0CA">RULE</text><text x="125" y="916" class="small" fill="#F3FAFB">An enterprise saving enters human review only when the</text><text x="125" y="936" class="small" fill="#F3FAFB">slowest resident path does not worsen.</text>
    <g><rect x="620" y="354" width="1090" height="138" rx="22" fill="#F7FAFC" stroke="#D9E3EA"/>
      <rect x="640" y="372" width="82" height="36" rx="18" fill="#143F52"/><text x="681" y="397" text-anchor="middle" class="caseId" fill="#7DE5C8">R-01</text>
      <text x="744" y="396" class="caseTitle" fill="#112B40">AM peak</text>
      <text x="744" y="429" class="label" fill="#D65F49">ENTERPRISE REQUEST</text><text x="1035" y="429" class="body" fill="#30495A">merged shuttles, employee arrivals and visitor</text><text x="1035" y="447" class="body" fill="#30495A">drop-off windows</text>
      <text x="744" y="466" class="label" fill="#188A7A">RESIDENT RETURN</text><text x="1035" y="466" class="body" fill="#30495A">school, care and accessible station routes</text><text x="1035" y="484" class="body" fill="#30495A">remain continuous despite enterprise priority</text></g><g><rect x="620" y="518" width="1090" height="138" rx="22" fill="#F7FAFC" stroke="#D9E3EA"/>
      <rect x="640" y="536" width="82" height="36" rx="18" fill="#143F52"/><text x="681" y="561" text-anchor="middle" class="caseId" fill="#7DE5C8">R-02</text>
      <text x="744" y="560" class="caseTitle" fill="#112B40">midday curb</text>
      <text x="744" y="593" class="label" fill="#D65F49">ENTERPRISE REQUEST</text><text x="1035" y="593" class="body" fill="#30495A">short loading, charging and maintenance windows</text>
      <text x="744" y="630" class="label" fill="#188A7A">RESIDENT RETURN</text><text x="1035" y="630" class="body" fill="#30495A">fire, wheelchair, walking and community-service</text><text x="1035" y="648" class="body" fill="#30495A">passages remain continuous</text></g><g><rect x="620" y="682" width="1090" height="138" rx="22" fill="#F7FAFC" stroke="#D9E3EA"/>
      <rect x="640" y="700" width="82" height="36" rx="18" fill="#143F52"/><text x="681" y="725" text-anchor="middle" class="caseId" fill="#7DE5C8">R-03</text>
      <text x="744" y="724" class="caseTitle" fill="#112B40">weather and night return</text>
      <text x="744" y="757" class="label" fill="#D65F49">ENTERPRISE REQUEST</text><text x="1035" y="757" class="body" fill="#30495A">night-shift feeders, timetable changes and</text><text x="1035" y="775" class="body" fill="#30495A">digital dispatch</text>
      <text x="744" y="794" class="label" fill="#188A7A">RESIDENT RETURN</text><text x="1035" y="794" class="body" fill="#30495A">public transport, telephone or staffed return</text><text x="1035" y="812" class="body" fill="#30495A">remains usable during outage or bad weather</text></g><g><rect x="620" y="846" width="1090" height="138" rx="22" fill="#F7FAFC" stroke="#D9E3EA"/>
      <rect x="640" y="864" width="82" height="36" rx="18" fill="#143F52"/><text x="681" y="889" text-anchor="middle" class="caseId" fill="#7DE5C8">R-04</text>
      <text x="744" y="888" class="caseTitle" fill="#112B40">failure, repair and exit</text>
      <text x="744" y="921" class="label" fill="#D65F49">ENTERPRISE REQUEST</text><text x="1035" y="921" class="body" fill="#30495A">service restoration, asset reuse and reopening</text>
      <text x="744" y="958" class="label" fill="#188A7A">RESIDENT RETURN</text><text x="1035" y="958" class="body" fill="#30495A">prior records persist, appeals pause release and</text><text x="1035" y="976" class="body" fill="#30495A">public routes recover first</text></g>
    <rect x="70" y="1020" width="790" height="125" rx="26" fill="#123F49" stroke="#3EB69F"/><text x="105" y="1055" class="metricLabel" fill="#9DEAD6">G0 PACKAGE REPLAY</text><text x="105" y="1097" class="metric" fill="#72E4C5">PASS</text><text x="250" y="1083" class="small" fill="#D6E8EA">4/4 fallback · 6/6 checks · 5/5 rollback</text><text x="250" y="1111" class="small" fill="#9FC0CA">structure replay only; does not advance P1/P2</text>
    <rect x="890" y="1020" width="840" height="125" rx="26" fill="#392A31" stroke="#EF8A73"/><text x="925" y="1055" class="metricLabel" fill="#FFC0B2">G1 FIELD RELEASE</text><text x="925" y="1097" class="metric" fill="#FF927D">HOLD</text><text x="1070" y="1083" class="small" fill="#F8DDD7">0 audit · 0 transfer · 0 locked denominator · 0 authorization</text><text x="1070" y="1111" class="small" fill="#DDBAB2">no release without field baseline, accepted responsibility and authorization</text>
    <text x="70" y="1180" class="small" fill="#87AAB4">PROVISIONAL GEOMETRY · SYNTHETIC PACKAGE REPLAY · NO PERSONAL TRACES · AIR EXCLUDED · 147228</text></svg>
