<svg xmlns="http://www.w3.org/2000/svg" width="1800" height="1100" viewBox="0 0 1800 1100" role="img" aria-labelledby="title desc">
<title id="title">Four seasons share one ordinary baseline; climate proof attaches to a removable edge</title><desc id="desc">Conceptual seasonal civic-ground section showing continuous ordinary use, ecological and maintenance layers, removable sensing edge and four-state operation without built-condition claims.</desc>
<defs>
<style>.sans{font-family:"Microsoft YaHei","Noto Sans CJK SC","Segoe UI",Arial,sans-serif}.kicker{font-size:17px;font-weight:900;letter-spacing:1.6px}.head{font-size:38px;font-weight:900}.sub{font-size:21px;font-weight:650}.label{font-size:27px;font-weight:900}.body{font-size:21px;font-weight:760}.small{font-size:18px;font-weight:720}.micro{font-size:16px;font-weight:650}.tiny{font-size:14px;font-weight:650}.number{font-size:42px;font-weight:950}</style>
<marker id="greenArrow" viewBox="0 0 16 16" refX="13" refY="8" markerWidth="8" markerHeight="8" orient="auto"><path d="M1 1 L15 8 L1 15 Z" fill="#087E68"/></marker>
<marker id="blueArrow" viewBox="0 0 16 16" refX="13" refY="8" markerWidth="8" markerHeight="8" orient="auto"><path d="M1 1 L15 8 L1 15 Z" fill="#167FA5"/></marker>
<marker id="coralArrow" viewBox="0 0 16 16" refX="13" refY="8" markerWidth="8" markerHeight="8" orient="auto"><path d="M1 1 L15 8 L1 15 Z" fill="#D75D45"/></marker>
</defs>
<rect width="1800" height="1100" fill="#F5F1E8"/><rect width="1800" height="142" fill="#102A43"/>
<text x="56" y="48" class="sans kicker" fill="#D6A21D" text-anchor="start">S07 / SEASONAL CIVIC SECTION / CLIMATE RESILIENCE</text>
<text x="56" y="104" class="sans head" fill="#FFFFFF" text-anchor="start">Four seasons share one ordinary baseline; climate proof attaches to a removable edge</text>
<text x="1740" y="48" class="sans kicker" fill="#F8D56A" text-anchor="end">G0 · PROVISIONAL · NOT TO SCALE</text>
<text x="56" y="178" class="sans sub" fill="#526675" text-anchor="start">A continuous section orders shade, stormwater, quiet use, maintenance and staffed service without depicting the climate contract as built works.</text>
<text x="55" y="245" class="sans kicker" fill="#087E68" text-anchor="start">A / CONTINUOUS SEASONAL SECTION</text>
<text x="55" y="286" class="sans label" fill="#102A43" text-anchor="start">Layer outward from ordinary use; proof never occupies basic service</text>
<line x1="65" y1="760" x2="1735" y2="760" stroke="#102A43" stroke-width="4" stroke-linecap="round"/>
<rect x="80" y="610" width="360" height="150" rx="12" fill="#DFF1EA" stroke="#087E68" stroke-width="4"/>
<text x="260" y="665" class="sans body" fill="#087E68" text-anchor="middle">ORDINARY WALK + QUIET REST</text>
<text x="260" y="700" class="sans micro" fill="#526675" text-anchor="middle">screen-free · staffed help · safe exit</text>
<path d="M470 760 Q620 520 780 760 Z" fill="#B9DCCF" stroke="#087E68" stroke-width="4"/>
<text x="625" y="665" class="sans body" fill="#087E68" text-anchor="middle">SHADE + PLANTING</text>
<text x="625" y="700" class="sans micro" fill="#526675" text-anchor="middle">species and soil unknown</text>
<path d="M800 760 Q950 675 1100 760 Z" fill="#D6E9ED" stroke="#167FA5" stroke-width="4"/>
<path d="M830 735 Q950 685 1070 735" fill="none" stroke="#167FA5" stroke-width="5"/>
<text x="950" y="665" class="sans body" fill="#167FA5" text-anchor="middle">STORMWATER / ECO BUFFER</text>
<text x="950" y="700" class="sans micro" fill="#526675" text-anchor="middle">hydrology and drainage unknown</text>
<rect x="1130" y="570" width="250" height="190" rx="12" fill="#FFFFFF" stroke="#B77A13" stroke-width="4"/>
<text x="1255" y="630" class="sans body" fill="#B77A13" text-anchor="middle">STAFF + MAINTENANCE</text>
<text x="1255" y="670" class="sans micro" fill="#526675" text-anchor="middle">clean · repair · emergency</text>
<text x="1255" y="700" class="sans micro" fill="#526675" text-anchor="middle">never blocked by devices</text>
<rect x="1430" y="535" width="260" height="225" rx="24" fill="#DCEEF4" stroke="#167FA5" stroke-width="5" stroke-dasharray="15 10"/>
<text x="1560" y="600" class="sans body" fill="#167FA5" text-anchor="middle">REMOVABLE CLIMATE EDGE</text>
<text x="1560" y="640" class="sans micro" fill="#526675" text-anchor="middle">sensor / prompt / movable shade</text>
<text x="1560" y="675" class="sans micro" fill="#D75D45" text-anchor="middle">physically stops on failure</text>
<circle cx="560" cy="491" r="32" fill="#B9DCCF" stroke="#087E68" stroke-width="3"/>
<line x1="560" y1="520" x2="560" y2="565" stroke="#087E68" stroke-width="8"/>
<circle cx="720" cy="533" r="25" fill="#B9DCCF" stroke="#087E68" stroke-width="3"/>
<line x1="720" y1="556" x2="720" y2="591" stroke="#087E68" stroke-width="6"/>
<circle cx="180" cy="532" r="9" fill="#102A43"/>
<path d="M180 545 L180 578 M180 556 L162 571 M180 556 L198 571 M180 578 L165 602 M180 578 L195 602" fill="none" stroke="#102A43" stroke-width="5" stroke-linecap="round"/>
<circle cx="360" cy="541" r="9" fill="#102A43"/>
<path d="M360 553 L360 583 M360 562 L344 576 M360 562 L376 576 M360 583 L347 605 M360 583 L373 605" fill="none" stroke="#102A43" stroke-width="4" stroke-linecap="round"/>
<circle cx="1320" cy="499" r="8" fill="#102A43"/>
<path d="M1320 510 L1320 538 M1320 519 L1305 532 M1320 519 L1335 532 M1320 538 L1308 558 M1320 538 L1332 558" fill="none" stroke="#102A43" stroke-width="4" stroke-linecap="round"/>
<line x1="80" y1="500" x2="440" y2="500" stroke="#D75D45" stroke-width="2" stroke-linecap="round" stroke-dasharray="8 7"/>
<path d="M80 493 L80 507 M440 493 L440 507" stroke="#D75D45" stroke-width="2"/>
<text x="260" y="491" class="sans tiny" fill="#D75D45" text-anchor="middle">WIDTH UNKNOWN</text>
<line x1="1430" y1="475" x2="1690" y2="475" stroke="#D75D45" stroke-width="2" stroke-linecap="round" stroke-dasharray="8 7"/>
<path d="M1430 468 L1430 482 M1690 468 L1690 482" stroke="#D75D45" stroke-width="2"/>
<text x="1560" y="466" class="sans tiny" fill="#D75D45" text-anchor="middle">PROOF LIMIT UNKNOWN</text>
<text x="55" y="835" class="sans kicker" fill="#D75D45" text-anchor="start">B / ORDINARY—OPTIONAL—STOP—RESTORE</text>
<path d="M55 875 L430 875 L455 915 L430 955 L55 955 Z" fill="#DFF1EA" stroke="#087E68" stroke-width="3"/>
<text x="77" y="909" class="sans small" fill="#087E68" text-anchor="start">01 ORDINARY</text>
<text x="77" y="940" class="sans tiny" fill="#526675" text-anchor="start">walk, rest and staffed help continue</text>
<path d="M475 875 L850 875 L875 915 L850 955 L475 955 Z" fill="#DCEEF4" stroke="#167FA5" stroke-width="3"/>
<text x="497" y="909" class="sans small" fill="#167FA5" text-anchor="start">02 OPTIONAL PROOF</text>
<text x="497" y="940" class="sans tiny" fill="#526675" text-anchor="start">opt in beside; ordinary line unchanged</text>
<path d="M895 875 L1270 875 L1295 915 L1270 955 L895 955 Z" fill="#F8E4DE" stroke="#D75D45" stroke-width="3"/>
<text x="917" y="909" class="sans small" fill="#D75D45" text-anchor="start">03 FAILURE STOP</text>
<text x="917" y="940" class="sans tiny" fill="#526675" text-anchor="start">stop activity and kit; staff takes over</text>
<path d="M1315 875 L1690 875 L1715 915 L1690 955 L1315 955 Z" fill="#FFF4D9" stroke="#B77A13" stroke-width="3"/>
<text x="1337" y="909" class="sans small" fill="#B77A13" text-anchor="start">04 RESTORE BASE</text>
<text x="1337" y="940" class="sans tiny" fill="#526675" text-anchor="start">return ground first; restart still gated</text>
<rect x="50" y="1018" width="1700" height="48" rx="16" fill="#102A43"/>
<text x="900" y="1049" class="sans micro" fill="#FFFFFF" text-anchor="middle">G0 CLIMATE RELATION ONLY · No existing-tree, drainage or vulnerable-group result · boundary, dimension, ecology, hydrology, fire safety, railway protection, staff and recovery time remain unknown / 0</text>
</svg>
