<svg xmlns="http://www.w3.org/2000/svg" width="1800" height="1100" viewBox="0 0 1800 1100" role="img" aria-labelledby="title desc">
<title id="title">一次空间裁决，三处给出不可互换的答案</title><desc id="desc">三处概念平面分别拒绝验证穿越普通路径、验证节点占用居民街和服务设施占据通勤中心，并保留旁置证明园、退后两院和路外人工服务。</desc>
<defs>
<style>.sans{font-family:"Microsoft YaHei","Noto Sans CJK SC","Segoe UI",Arial,sans-serif}.kicker{font-size:17px;font-weight:900;letter-spacing:1.6px}.head{font-size:38px;font-weight:900}.sub{font-size:21px;font-weight:650}.label{font-size:27px;font-weight:900}.body{font-size:21px;font-weight:760}.small{font-size:18px;font-weight:720}.micro{font-size:16px;font-weight:650}.tiny{font-size:14px;font-weight:650}.number{font-size:42px;font-weight:950}</style>
<marker id="greenArrow" viewBox="0 0 16 16" refX="13" refY="8" markerWidth="8" markerHeight="8" orient="auto"><path d="M1 1 L15 8 L1 15 Z" fill="#087E68"/></marker>
<marker id="blueArrow" viewBox="0 0 16 16" refX="13" refY="8" markerWidth="8" markerHeight="8" orient="auto"><path d="M1 1 L15 8 L1 15 Z" fill="#167FA5"/></marker>
<marker id="coralArrow" viewBox="0 0 16 16" refX="13" refY="8" markerWidth="8" markerHeight="8" orient="auto"><path d="M1 1 L15 8 L1 15 Z" fill="#D75D45"/></marker>
</defs>
<rect width="1800" height="1100" fill="#F5F1E8"/><rect width="1800" height="142" fill="#102A43"/>
<text x="56" y="48" class="sans kicker" fill="#D6A21D" text-anchor="start">S03 / THREE PLAN PROTOTYPES / 三处平面</text>
<text x="56" y="104" class="sans head" fill="#FFFFFF" text-anchor="start">一次空间裁决，三处给出不可互换的答案</text>
<text x="1740" y="48" class="sans kicker" fill="#F8D56A" text-anchor="end">G0 · PROVISIONAL · NOT TO SCALE</text>
<text x="56" y="178" class="sans sub" fill="#526675" text-anchor="start">共同裁决：验证不得接管普通地面；三处分别用旁置、退院、路外作出不同空间回答。G0 · 临时关系 · 非批准。</text>
<line x1="602" y1="228" x2="602" y2="970" stroke="#C7D0CC" stroke-width="2" stroke-dasharray="8 9"/>
<line x1="1200" y1="228" x2="1200" y2="970" stroke="#C7D0CC" stroke-width="2" stroke-dasharray="8 9"/>
<text x="55" y="258" class="sans kicker" fill="#167FA5" text-anchor="start">01 VERIFY · 众智园</text>
<text x="55" y="302" class="sans label" fill="#102A43" text-anchor="start">平行绕行 + 旁置证明园</text>
<text x="55" y="337" class="sans micro" fill="#526675" text-anchor="start"><tspan x="55" dy="0">普通路径不穿越验证边</tspan><tspan x="55" dy="27">人工交接位于两条路径之间</tspan></text>
<rect x="55" y="380" width="240" height="42" rx="13" fill="#F8E4DE" stroke="#D75D45" stroke-width="2"/><text x="175" y="407" class="sans micro" fill="#D75D45" text-anchor="middle">拒绝：验证穿路</text>
<rect x="315" y="380" width="230" height="42" rx="13" fill="#DFF1EA" stroke="#087E68" stroke-width="2"/><text x="430" y="407" class="sans micro" fill="#087E68" text-anchor="middle">保留：旁置</text>
<path d="M90 500 C150 420 390 420 510 510 C555 545 555 630 500 670 C380 755 165 715 95 650 C55 612 52 548 90 500 Z" fill="#DCEEF4" stroke="#167FA5" stroke-width="5"/>
<path d="M145 520 C220 470 385 472 460 535 C492 563 487 610 448 633 C355 688 205 658 145 610 C115 586 115 545 145 520 Z" fill="#FFFFFF" stroke="#167FA5" stroke-width="4" stroke-dasharray="13 9"/>
<text x="300" y="555" class="sans body" fill="#167FA5" text-anchor="middle">证明园</text>
<text x="300" y="590" class="sans micro" fill="#526675" text-anchor="middle">围合 · 可观察 · 可物理停止</text>
<path d="M70 790 C190 748 330 812 555 755" fill="none" stroke="#DFF1EA" stroke-width="75" stroke-linecap="round"/>
<path d="M70 790 C190 748 330 812 555 755" fill="none" stroke="#087E68" stroke-width="12" stroke-linecap="round" marker-end="url(#greenArrow)"/>
<text x="280" y="850" class="sans small" fill="#087E68" text-anchor="middle">普通绕行 / NON-AI CONTINUES</text>
<rect x="420" y="690" width="125" height="54" rx="18" fill="#FFF4D9" stroke="#B77A13" stroke-width="3"/>
<text x="482" y="724" class="sans small" fill="#B77A13" text-anchor="middle">人工交接</text>
<line x1="505" y1="660" x2="485" y2="690" stroke="#B77A13" stroke-width="4"/>
<circle cx="105" cy="455" r="15" fill="#B9DCCF" stroke="#087E68" stroke-width="2"/>
<circle cx="98" cy="457" r="10" fill="#DFF1EA"/>
<circle cx="112" cy="458" r="10" fill="#95C8B5"/>
<circle cx="105" cy="455" r="4" fill="#087E68"/>
<circle cx="500" cy="450" r="15" fill="#B9DCCF" stroke="#087E68" stroke-width="2"/>
<circle cx="493" cy="452" r="10" fill="#DFF1EA"/>
<circle cx="507" cy="453" r="10" fill="#95C8B5"/>
<circle cx="500" cy="450" r="4" fill="#087E68"/>
<circle cx="110" cy="752" r="6" fill="#102A43"/>
<path d="M110 758 L110 782 M110 767 L98 776 M110 767 L122 776 M110 782 L98 800 M110 782 L122 800" stroke="#102A43" stroke-width="3" stroke-linecap="round" fill="none"/>
<circle cx="390" cy="762" r="6" fill="#102A43"/>
<path d="M390 768 L390 792 M390 777 L378 786 M390 777 L402 786 M390 792 L378 810 M390 792 L402 810" stroke="#102A43" stroke-width="3" stroke-linecap="round" fill="none"/>
<text x="635" y="258" class="sans kicker" fill="#B77A13" text-anchor="start">02 CO-CREATE · 原点社区</text>
<text x="635" y="302" class="sans label" fill="#102A43" text-anchor="start">一街两院 + 四个撤回节点</text>
<text x="635" y="337" class="sans micro" fill="#526675" text-anchor="start"><tspan x="635" dy="0">居民街持续开放</tspan><tspan x="635" dy="27">验证从街边进入，不接管街道</tspan></text>
<rect x="635" y="380" width="250" height="42" rx="13" fill="#F8E4DE" stroke="#D75D45" stroke-width="2"/><text x="760" y="407" class="sans micro" fill="#D75D45" text-anchor="middle">拒绝：节点占街</text>
<rect x="905" y="380" width="250" height="42" rx="13" fill="#DFF1EA" stroke="#087E68" stroke-width="2"/><text x="1030" y="407" class="sans micro" fill="#087E68" text-anchor="middle">保留：退院</text>
<rect x="650" y="445" width="215" height="190" rx="8" fill="#FFF4D9" stroke="#B77A13" stroke-width="5"/>
<path d="M690 495 L825 495 L825 595 L690 595 Z" fill="#FFFFFF" stroke="#B77A13" stroke-width="3" stroke-dasharray="10 8"/>
<text x="758" y="550" class="sans small" fill="#B77A13" text-anchor="middle">问题院</text>
<rect x="965" y="435" width="200" height="205" rx="8" fill="#DCEEF4" stroke="#167FA5" stroke-width="5"/>
<path d="M1004 485 L1126 485 L1126 600 L1004 600 Z" fill="#FFFFFF" stroke="#167FA5" stroke-width="3"/>
<text x="1065" y="550" class="sans small" fill="#167FA5" text-anchor="middle">评议院</text>
<path d="M620 742 C760 700 920 770 1180 710" fill="none" stroke="#DFF1EA" stroke-width="92" stroke-linecap="round"/>
<path d="M620 742 C760 700 920 770 1180 710" fill="none" stroke="#087E68" stroke-width="12" stroke-linecap="round" marker-end="url(#greenArrow)"/>
<text x="900" y="830" class="sans small" fill="#087E68" text-anchor="middle">居民街 / ORDINARY STREET</text>
<circle cx="700" cy="722" r="21" fill="#FFFFFF" stroke="#D75D45" stroke-width="4"/>
<text x="700" y="728" class="sans tiny" fill="#D75D45" text-anchor="middle">1</text>
<circle cx="820" cy="735" r="21" fill="#FFFFFF" stroke="#D75D45" stroke-width="4"/>
<text x="820" y="741" class="sans tiny" fill="#D75D45" text-anchor="middle">2</text>
<circle cx="960" cy="737" r="21" fill="#FFFFFF" stroke="#D75D45" stroke-width="4"/>
<text x="960" y="743" class="sans tiny" fill="#D75D45" text-anchor="middle">3</text>
<circle cx="1080" cy="720" r="21" fill="#FFFFFF" stroke="#D75D45" stroke-width="4"/>
<text x="1080" y="726" class="sans tiny" fill="#D75D45" text-anchor="middle">4</text>
<rect x="775" y="875" width="250" height="54" rx="18" fill="#DCEEF4" stroke="#167FA5" stroke-width="3"/>
<text x="900" y="909" class="sans small" fill="#167FA5" text-anchor="middle">纸面 / 口述 / 人工交接</text>
<circle cx="620" cy="650" r="12" fill="#B9DCCF" stroke="#087E68" stroke-width="2"/>
<circle cx="614" cy="652" r="8" fill="#DFF1EA"/>
<circle cx="626" cy="653" r="8" fill="#95C8B5"/>
<circle cx="620" cy="650" r="4" fill="#087E68"/>
<circle cx="1160" cy="650" r="12" fill="#B9DCCF" stroke="#087E68" stroke-width="2"/>
<circle cx="1154" cy="652" r="8" fill="#DFF1EA"/>
<circle cx="1166" cy="653" r="8" fill="#95C8B5"/>
<circle cx="1160" cy="650" r="4" fill="#087E68"/>
<circle cx="660" cy="705" r="5" fill="#102A43"/>
<path d="M660 710 L660 730 M660 718 L650 725 M660 718 L670 725 M660 730 L650 745 M660 730 L670 745" stroke="#102A43" stroke-width="3" stroke-linecap="round" fill="none"/>
<circle cx="1130" cy="690" r="5" fill="#102A43"/>
<path d="M1130 695 L1130 715 M1130 703 L1120 710 M1130 703 L1140 710 M1130 715 L1120 730 M1130 715 L1140 730" stroke="#102A43" stroke-width="3" stroke-linecap="round" fill="none"/>
<text x="1230" y="258" class="sans kicker" fill="#D75D45" text-anchor="start">03 PUBLISH · 大钟寺</text>
<text x="1230" y="302" class="sans label" fill="#102A43" text-anchor="start">四向通勤 + 路外人工服务</text>
<text x="1230" y="337" class="sans micro" fill="#526675" text-anchor="start"><tspan x="1230" dy="0">中心保持通行，不承载验证</tspan><tspan x="1230" dy="27">信息厅与人工台退出主路</tspan></text>
<rect x="1230" y="380" width="250" height="42" rx="13" fill="#F8E4DE" stroke="#D75D45" stroke-width="2"/><text x="1355" y="407" class="sans micro" fill="#D75D45" text-anchor="middle">拒绝：服务占中</text>
<rect x="1500" y="380" width="230" height="42" rx="13" fill="#DFF1EA" stroke="#087E68" stroke-width="2"/><text x="1615" y="407" class="sans micro" fill="#087E68" text-anchor="middle">保留：路外</text>
<line x1="1480" y1="430" x2="1480" y2="840" stroke="#DFF1EA" stroke-width="100"/>
<line x1="1260" y1="635" x2="1705" y2="635" stroke="#DFF1EA" stroke-width="100"/>
<line x1="1480" y1="420" x2="1480" y2="850" stroke="#087E68" stroke-width="13"/>
<line x1="1250" y1="635" x2="1715" y2="635" stroke="#087E68" stroke-width="13"/>
<circle cx="1480" cy="635" r="45" fill="#FFFFFF" stroke="#087E68" stroke-width="6"/>
<text x="1480" y="642" class="sans tiny" fill="#087E68" text-anchor="middle">通行</text>
<path d="M1265 430 L1420 430 L1420 545 L1265 545 Z" fill="#F8E4DE" stroke="#D75D45" stroke-width="4" stroke-dasharray="12 8"/>
<text x="1342" y="480" class="sans small" fill="#D75D45" text-anchor="middle">路外信息厅</text>
<text x="1342" y="512" class="sans tiny" fill="#526675" text-anchor="middle">来源 · 拒绝 · 申诉</text>
<rect x="1560" y="730" width="145" height="80" rx="22" fill="#DCEEF4" stroke="#167FA5" stroke-width="4"/>
<text x="1632" y="780" class="sans small" fill="#167FA5" text-anchor="middle">人工台</text>
<rect x="1250" y="745" width="150" height="72" rx="28" fill="#FFFFFF" stroke="#526675" stroke-width="3"/>
<text x="1325" y="790" class="sans small" fill="#526675" text-anchor="middle">安静休憩</text>
<circle cx="1460" cy="507" r="6" fill="#102A43"/>
<path d="M1460 513 L1460 537 M1460 522 L1448 531 M1460 522 L1472 531 M1460 537 L1448 555 M1460 537 L1472 555" stroke="#102A43" stroke-width="3" stroke-linecap="round" fill="none"/>
<circle cx="1370" cy="602" r="6" fill="#102A43"/>
<path d="M1370 608 L1370 632 M1370 617 L1358 626 M1370 617 L1382 626 M1370 632 L1358 650 M1370 632 L1382 650" stroke="#102A43" stroke-width="3" stroke-linecap="round" fill="none"/>
<circle cx="1585" cy="602" r="6" fill="#102A43"/>
<path d="M1585 608 L1585 632 M1585 617 L1573 626 M1585 617 L1597 626 M1585 632 L1573 650 M1585 632 L1597 650" stroke="#102A43" stroke-width="3" stroke-linecap="round" fill="none"/>
<circle cx="1695" cy="465" r="14" fill="#B9DCCF" stroke="#087E68" stroke-width="2"/>
<circle cx="1688" cy="467" r="9" fill="#DFF1EA"/>
<circle cx="1702" cy="468" r="9" fill="#95C8B5"/>
<circle cx="1695" cy="465" r="4" fill="#087E68"/>
<rect x="50" y="1018" width="1700" height="48" rx="16" fill="#102A43"/>
<text x="900" y="1049" class="sans micro" fill="#FFFFFF" text-anchor="middle">三处均先保持普通路径与非 AI 入口 · 故障只停验证对象 · 恢复先还场、再复核，不代表批准、授权或 G1 · FIELD / GO / RIGHTS 仍受证据门约束</text>
</svg>
