<svg xmlns="http://www.w3.org/2000/svg" width="1600" height="1000" viewBox="0 0 1600 1000">
  <rect width="1600" height="1000" fill="#101827"/>
  <rect x="42" y="38" width="1516" height="924" rx="28" fill="#172338" stroke="#405777" stroke-width="2"/>
  <text x="86" y="100" fill="#f5f8fb" font-family="Arial, sans-serif" font-size="38" font-weight="700">AI Is Optional and the City Keeps Running</text>
  <text x="86" y="144" fill="#a9bdd5" font-family="Arial, sans-serif" font-size="20">AI ERA · OFF CITY ON · G0 / HOLD · 0 AUTHORIZATION · 0 FIELD DATA</text>
  <rect x="1240" y="76" width="244" height="78" rx="16" fill="#263b58" stroke="#7ee2b8" stroke-width="2"/>
  <text x="1362" y="111" text-anchor="middle" fill="#7ee2b8" font-family="Arial, sans-serif" font-size="25" font-weight="700">HOLD</text>
  <text x="1362" y="137" text-anchor="middle" fill="#dbe8f5" font-family="Arial, sans-serif" font-size="16">not run · baseline unknown</text>
  <line x1="126" y1="224" x2="1474" y2="224" stroke="#5c7595" stroke-width="3"/>
  <g font-family="Arial, sans-serif" font-size="18" font-weight="700" fill="#f5f8fb">
    <text x="150" y="207">Ordinary baseline</text><text x="500" y="207">Optional gain</text><text x="855" y="207">Stop trigger</text><text x="1170" y="207">Retained public asset</text>
  </g>
  <g stroke="#7ee2b8" stroke-width="4" fill="none"><path d="M235 224 L550 224"/><path d="M585 224 L900 224"/><path d="M935 224 L1250 224"/></g>
  <g fill="#7ee2b8"><circle cx="235" cy="224" r="10"/><circle cx="585" cy="224" r="10"/><circle cx="935" cy="224" r="10"/><circle cx="1250" cy="224" r="10"/></g>
  <g font-family="Arial, sans-serif">
    <g transform="translate(86 280)"><rect width="690" height="128" rx="18" fill="#1e3048" stroke="#42617f"/><text x="28" y="38" fill="#7ee2b8" font-size="22" font-weight="700">ROUTE-01 · Intergenerational learning</text><text x="28" y="72" fill="#f5f8fb" font-size="18">Human explanation and screen-free learning → bounded prompts</text><text x="28" y="103" fill="#a9bdd5" font-size="16">Freeze if takeover is missing and retain human learning and wayfinding</text></g>
    <g transform="translate(824 280)"><rect width="690" height="128" rx="18" fill="#1e3048" stroke="#42617f"/><text x="28" y="38" fill="#7ee2b8" font-size="22" font-weight="700">ROUTE-02 · Civic API</text><text x="28" y="72" fill="#f5f8fb" font-size="18">Staffed service without a data call → bounded public retrieval</text><text x="28" y="103" fill="#a9bdd5" font-size="16">HOLD on unclear rights or accountability and retain paper and redress</text></g>
    <g transform="translate(86 448)"><rect width="690" height="128" rx="18" fill="#1e3048" stroke="#42617f"/><text x="28" y="38" fill="#7ee2b8" font-size="22" font-weight="700">ROUTE-03 · Night service</text><text x="28" y="72" fill="#f5f8fb" font-size="18">Staffing and paper rules → bounded safety prompt</text><text x="28" y="103" fill="#a9bdd5" font-size="16">Stop without night review and retain ordinary passage and human return</text></g>
    <g transform="translate(824 448)"><rect width="690" height="128" rx="18" fill="#1e3048" stroke="#42617f"/><text x="28" y="38" fill="#7ee2b8" font-size="22" font-weight="700">ROUTE-04 · Reskilling</text><text x="28" y="72" fill="#f5f8fb" font-size="18">Human consultation → choice-led information matching</text><text x="28" y="103" fill="#a9bdd5" font-size="16">HOLD when exit is unclear and retain human advice and the withdrawal record</text></g>
  </g>
  <rect x="86" y="638" width="1428" height="196" rx="20" fill="#122033" stroke="#314965"/>
  <text x="116" y="682" fill="#f5f8fb" font-family="Arial, sans-serif" font-size="21" font-weight="700">Reading order</text>
  <text x="116" y="724" fill="#a9bdd5" font-family="Arial, sans-serif" font-size="19">First ask whether ordinary service can complete the task, then ask whether AI is only a bounded gain</text>
  <text x="116" y="760" fill="#a9bdd5" font-family="Arial, sans-serif" font-size="19">Freeze on takeover, rights, night-safety or exit failure, remove the digital layer and retain public service</text>
  <text x="116" y="796" fill="#7ee2b8" font-family="Arial, sans-serif" font-size="19">4 negative HOLD · 3 positive controls · performance_results null · not an official score</text>
  <text x="86" y="912" fill="#7f96b1" font-family="Arial, sans-serif" font-size="16">Source contract: visual/assets/ai-era-off-city-on-contract.json · Concept contract only · provisional geometry · no field claim</text>
</svg>
