<?xml version="1.0" encoding="UTF-8"?>
<svg xmlns="http://www.w3.org/2000/svg" viewBox="0 0 840 220" role="img" aria-labelledby="title desc">
  <title id="title">人民的AI 推荐主标黑色单色版</title>
  <desc id="desc">B 人字转向横版标识的纯黑单色版本。</desc>
  <g id="alt-b-mark" transform="translate(18 8) scale(.64)" fill="#111111">
    <path d="M47 246C17 180 27 98 77 53C124 11 198 10 245 51C296 96 306 179 273 246L247 232C275 176 266 113 226 79C188 46 132 47 95 81C57 116 48 177 73 232Z"/>
    <circle cx="160" cy="106" r="23"/>
    <path d="M140 128C137 174 113 217 67 253L83 272C134 232 160 183 160 132Z"/>
    <path d="M180 128C183 174 207 217 253 253L237 272C186 232 160 183 160 132Z"/>
  </g>
  <g id="wordmark" fill="#111111" font-family="PingFang SC">
    <text x="255" y="108" font-size="76" font-weight="700" letter-spacing="1">人民的AI</text>
    <text x="259" y="158" font-size="29" font-weight="600" letter-spacing="3.2">AI for All</text>
    <rect x="259" y="178" width="72" height="4" rx="2"/>
  </g>
</svg>
